<?xml version="1.0" standalone="no"?>
<!DOCTYPE svg PUBLIC "-//W3C//DTD SVG 20010904//EN"
 "http://www.w3.org/TR/2001/REC-SVG-20010904/DTD/svg10.dtd">
<svg version="1.0" xmlns="http://www.w3.org/2000/svg"
 width="256.000000pt" height="256.000000pt" viewBox="0 0 256.000000 256.000000"
 preserveAspectRatio="xMidYMid meet">

<g transform="translate(0.000000,256.000000) scale(0.100000,-0.100000)"
fill="#000000" stroke="none">
<path d="M0 1280 l0 -1280 1280 0 1280 0 0 1280 0 1280 -1280 0 -1280 0 0
-1280z m1560 1030 c25 -25 25 -35 0 -60 -20 -20 -33 -20 -630 -20 -597 0 -610
0 -630 20 -11 11 -20 25 -20 30 0 6 9 19 20 30 20 20 33 20 630 20 597 0 610
0 630 -20z m302 -197 c22 -20 23 -41 1 -65 -15 -17 -45 -18 -531 -18 -466 0
-517 2 -534 17 -22 20 -23 41 -1 65 15 17 45 18 531 18 466 0 517 -2 534 -17z
m-802 -203 c11 -11 20 -24 20 -30 0 -5 -9 -19 -20 -30 -19 -19 -33 -20 -380
-20 -347 0 -361 1 -380 20 -11 11 -20 25 -20 30 0 6 9 19 20 30 19 19 33 20
380 20 347 0 361 -1 380 -20z m600 0 c11 -11 20 -24 20 -30 0 -5 -9 -19 -20
-30 -19 -19 -33 -20 -230 -20 -197 0 -211 1 -230 20 -11 11 -20 25 -20 30 0 6
9 19 20 30 19 19 33 20 230 20 197 0 211 -1 230 -20z m300 0 c11 -11 20 -24
20 -30 0 -5 -9 -19 -20 -30 -16 -16 -33 -20 -80 -20 -47 0 -64 4 -80 20 -11
11 -20 25 -20 30 0 6 9 19 20 30 16 16 33 20 80 20 47 0 64 -4 80 -20z m-1198
-197 c22 -20 23 -41 1 -65 -15 -16 -36 -18 -231 -18 -186 0 -218 2 -234 17
-22 20 -23 41 -1 65 15 16 36 18 231 18 186 0 218 -2 234 -17z m-2 -203 c11
-11 20 -24 20 -30 0 -5 -9 -19 -20 -30 -19 -19 -33 -20 -230 -20 -197 0 -211
1 -230 20 -11 11 -20 25 -20 30 0 6 9 19 20 30 19 19 33 20 230 20 197 0 211
-1 230 -20z m1302 3 c22 -20 23 -41 1 -65 -15 -17 -37 -18 -281 -18 -233 0
-268 2 -284 17 -22 20 -23 41 -1 65 15 17 37 18 281 18 233 0 268 -2 284 -17z
m-1100 -200 c22 -20 23 -41 1 -65 -14 -16 -34 -18 -181 -18 -140 0 -168 3
-184 17 -22 20 -23 41 -1 65 14 16 34 18 181 18 140 0 168 -3 184 -17z m998
-3 c11 -11 20 -24 20 -30 0 -5 -9 -19 -20 -30 -19 -19 -33 -20 -430 -20 -397
0 -411 1 -430 20 -11 11 -20 25 -20 30 0 6 9 19 20 30 19 19 33 20 430 20 397
0 411 -1 430 -20z m-1200 -200 c11 -11 20 -25 20 -30 0 -5 -9 -19 -20 -30 -19
-19 -33 -20 -230 -20 -197 0 -211 1 -230 20 -11 11 -20 25 -20 30 0 6 9 19 20
30 19 19 33 20 230 20 197 0 211 -1 230 -20z m1100 0 c11 -11 20 -24 20 -30 0
-5 -9 -19 -20 -30 -18 -18 -33 -20 -180 -20 -147 0 -162 2 -180 20 -11 11 -20
25 -20 30 0 6 9 19 20 30 18 18 33 20 180 20 147 0 162 -2 180 -20z m-1400
-200 c25 -25 25 -35 0 -60 -16 -16 -33 -20 -80 -20 -47 0 -64 4 -80 20 -11 11
-20 25 -20 30 0 6 9 19 20 30 16 16 33 20 80 20 47 0 64 -4 80 -20z m1102 3
c22 -20 23 -41 1 -65 -15 -17 -43 -18 -481 -18 -419 0 -467 2 -484 17 -22 20
-23 41 -1 65 15 17 43 18 481 18 419 0 467 -2 484 -17z m-602 -203 c11 -11 20
-24 20 -30 0 -5 -9 -19 -20 -30 -19 -19 -33 -20 -330 -20 -297 0 -311 1 -330
20 -11 11 -20 25 -20 30 0 6 9 19 20 30 19 19 33 20 330 20 297 0 311 -1 330
-20z m-400 -200 c11 -11 20 -24 20 -30 0 -5 -9 -19 -20 -30 -18 -18 -33 -20
-130 -20 -97 0 -112 2 -130 20 -11 11 -20 25 -20 30 0 6 9 19 20 30 18 18 33
20 130 20 97 0 112 -2 130 -20z m402 3 c22 -20 23 -41 1 -65 -14 -15 -32 -18
-131 -18 -93 0 -119 3 -134 17 -22 20 -23 41 -1 65 14 15 32 18 131 18 93 0
119 -3 134 -17z"/>
</g>
</svg>
